<?xml version="1.0" encoding="UTF-8" standalone="no"?>
<svg
   version="1.1"
   width="3000"
   height="770.52197"
   viewBox="0 0 3000 770.52198"
   id="svg47"
   sodipodi:docname="text colour.svg"
   inkscape:version="1.1 (c4e8f9ed74, 2021-05-24)"
   xmlns:inkscape="http://www.inkscape.org/namespaces/inkscape"
   xmlns:sodipodi="http://sodipodi.sourceforge.net/DTD/sodipodi-0.dtd"
   xmlns:xlink="http://www.w3.org/1999/xlink"
   xmlns="http://www.w3.org/2000/svg"
   xmlns:svg="http://www.w3.org/2000/svg">
  <defs
     id="defs51">
    <linearGradient
       inkscape:collect="always"
       xlink:href="#SvgjsLinearGradient1348"
       id="linearGradient133"
       gradientTransform="scale(2.7515737,0.36342839)"
       x1="0.081867026"
       y1="27.515737"
       x2="82.629078"
       y2="27.515737"
       gradientUnits="userSpaceOnUse" />
    <linearGradient
       inkscape:collect="always"
       xlink:href="#SvgjsLinearGradient1348"
       id="linearGradient135"
       gradientTransform="scale(2.7515737,0.36342839)"
       x1="0.081867026"
       y1="27.515737"
       x2="82.629078"
       y2="27.515737"
       gradientUnits="userSpaceOnUse" />
    <linearGradient
       inkscape:collect="always"
       xlink:href="#SvgjsLinearGradient1351"
       id="linearGradient137"
       gradientTransform="scale(3.226632,0.30992069)"
       x1="0.30752988"
       y1="15.705241"
       x2="49.296636"
       y2="15.705241"
       gradientUnits="userSpaceOnUse" />
    <linearGradient
       inkscape:collect="always"
       xlink:href="#SvgjsLinearGradient1351"
       id="linearGradient139"
       gradientTransform="scale(3.226632,0.30992069)"
       x1="0.30752988"
       y1="15.705241"
       x2="49.296636"
       y2="15.705241"
       gradientUnits="userSpaceOnUse" />
  </defs>
  <sodipodi:namedview
     id="namedview49"
     pagecolor="#ffffff"
     bordercolor="#666666"
     borderopacity="1.0"
     inkscape:pageshadow="2"
     inkscape:pageopacity="0.0"
     inkscape:pagecheckerboard="0"
     showgrid="false"
     inkscape:zoom="0.26722813"
     inkscape:cx="1498.7195"
     inkscape:cy="-439.69922"
     inkscape:window-width="1043"
     inkscape:window-height="1892"
     inkscape:window-x="37"
     inkscape:window-y="0"
     inkscape:window-maximized="1"
     inkscape:current-layer="g45" />
  <g
     transform="matrix(15,0,0,15,1.68026e-5,-1650.0001)"
     id="g45">
    <defs
       id="SvgjsDefs1338">
      <linearGradient
         id="SvgjsLinearGradient1345">
        <stop
           id="SvgjsStop1346"
           stop-color="#6d7cff"
           offset="0" />
        <stop
           id="SvgjsStop1347"
           stop-color="#ff51ff"
           offset="1" />
      </linearGradient>
      <linearGradient
         id="SvgjsLinearGradient1348">
        <stop
           id="SvgjsStop1349"
           stop-color="#6d7cff"
           offset="0" />
        <stop
           id="SvgjsStop1350"
           stop-color="#ff51ff"
           offset="1" />
      </linearGradient>
      <linearGradient
         id="SvgjsLinearGradient1351">
        <stop
           id="SvgjsStop1352"
           stop-color="#6d7cff"
           offset="0" />
        <stop
           id="SvgjsStop1353"
           stop-color="#ff51ff"
           offset="1" />
      </linearGradient>
    </defs>
    <g
       id="SvgjsG1340"
       featureKey="nameFeature-0"
       transform="matrix(0.88053463,0,0,0.88053463,-0.19835313,101.19466)"
       fill="url(#SvgjsLinearGradient1348)"
       style="fill:url(#linearGradient135)">
      <path
         d="m 29.56,37.72 q 0.28,0.64 -0.14,1.3 -0.42,0.66 -1.14,0.66 H 1.64 Q 1.28,39.68 0.96,39.5 0.64,39.32 0.48,39.04 0.04,38.4 0.36,37.72 L 1.6,34.8 Q 1.76,34.4 2.12,34.16 2.48,33.92 2.88,33.92 H 21.52 L 14.96,18.24 9.6,31.04 q -0.16,0.4 -0.5,0.62 -0.34,0.22 -0.78,0.22 H 4.96 Q 4.2,31.88 3.76,31.24 3.6,30.96 3.56,30.6 3.52,30.24 3.64,29.92 l 8.12,-19.04 q 0.16,-0.4 0.5,-0.64 Q 12.6,10 13.04,10 h 3.84 q 0.44,0 0.78,0.24 0.34,0.24 0.5,0.64 z M 56.4,10 q 0.68,0 1.16,0.6 0.4,0.68 0.12,1.32 L 46.92,38.48 q -0.16,0.4 -0.52,0.64 -0.36,0.24 -0.76,0.24 H 42.2 q -0.44,0 -0.78,-0.24 -0.34,-0.24 -0.54,-0.64 L 30.12,11.92 q -0.28,-0.72 0.16,-1.32 0.2,-0.28 0.5,-0.44 Q 31.08,10 31.44,10 h 3.28 q 0.4,0 0.76,0.24 0.36,0.24 0.52,0.64 L 43.92,30.76 51.8,10.88 Q 52,10.48 52.34,10.24 52.68,10 53.12,10 Z m 19.48,0.84 11.2,26.44 q 0.2,0.32 0.2,0.68 0,0.56 -0.4,0.98 -0.4,0.42 -1,0.42 h -3.32 q -0.44,0 -0.78,-0.22 -0.34,-0.22 -0.5,-0.62 L 78.36,31.64 H 67.04 l -2.88,6.88 q -0.16,0.4 -0.5,0.62 -0.34,0.22 -0.78,0.22 h -3.32 q -0.36,0 -0.68,-0.18 Q 58.56,39 58.38,38.72 58.2,38.44 58.16,38.1 58.12,37.76 58.28,37.44 l 11.28,-26.6 q 0.16,-0.4 0.5,-0.62 Q 70.4,10 70.84,10 h 3.76 q 0.44,0 0.78,0.22 0.34,0.22 0.5,0.62 z m -3.16,7.28 -3.32,7.96 h 6.64 z m 32.04,6.12 9.84,12.76 q 0.4,0.4 0.4,0.96 0,0.56 -0.42,0.98 -0.42,0.42 -0.98,0.42 h -3.8 q -0.32,0 -0.64,-0.14 -0.32,-0.14 -0.48,-0.42 l -7.52,-9.92 -7.48,9.92 q -0.44,0.56 -1.12,0.56 h -3.8 q -0.4,0 -0.74,-0.22 -0.34,-0.22 -0.52,-0.56 -0.18,-0.34 -0.14,-0.76 0.04,-0.42 0.28,-0.7 l 9.96,-12.88 -9.24,-12 q -0.24,-0.28 -0.28,-0.7 -0.04,-0.42 0.14,-0.76 0.18,-0.34 0.52,-0.56 Q 89.08,10 89.48,10 h 3.8 q 0.68,0 1.12,0.56 l 6.76,8.96 6.8,-8.96 q 0.16,-0.28 0.48,-0.42 0.32,-0.14 0.64,-0.14 h 3.8 q 0.4,0 0.72,0.22 0.32,0.22 0.52,0.56 0.2,0.34 0.16,0.76 -0.04,0.42 -0.32,0.7 z m 22.4,-7.8 q -1.64,0.68 -2.68,1.92 -2.24,2.48 -2.24,6.64 0,4.16 2.24,6.68 2.32,2.6 6.88,2.6 2.4,0 4.22,-1.22 1.82,-1.22 2.7,-3.26 0.16,-0.4 0.5,-0.62 0.34,-0.22 0.78,-0.22 h 3.16 q 0.32,0 0.64,0.14 0.32,0.14 0.48,0.42 0.44,0.64 0.2,1.28 -1.48,4.2 -4.88,6.6 -3.64,2.6 -8.48,2.6 -6.44,0 -10.48,-4.44 -3.76,-4.24 -3.76,-10.56 0,-6.32 3.76,-10.56 4.04,-4.44 10.48,-4.44 4.84,0 8.48,2.6 3.36,2.4 4.88,6.6 0.24,0.68 -0.2,1.28 -0.16,0.28 -0.48,0.42 -0.32,0.14 -0.64,0.14 h -3.16 q -0.44,0 -0.78,-0.22 -0.34,-0.22 -0.5,-0.62 -0.88,-2.04 -2.7,-3.26 -1.82,-1.22 -4.22,-1.22 -2.56,0 -4.2,0.72 z m 36.2,-5.6 11.2,26.44 q 0.2,0.32 0.2,0.68 0,0.56 -0.4,0.98 -0.4,0.42 -1,0.42 h -3.32 q -0.44,0 -0.78,-0.22 -0.34,-0.22 -0.5,-0.62 l -2.92,-6.88 h -11.32 l -2.88,6.88 q -0.16,0.4 -0.5,0.62 -0.34,0.22 -0.78,0.22 h -3.32 q -0.36,0 -0.68,-0.18 -0.32,-0.18 -0.5,-0.46 -0.18,-0.28 -0.22,-0.62 -0.04,-0.34 0.12,-0.66 l 11.28,-26.6 q 0.16,-0.4 0.5,-0.62 0.34,-0.22 0.78,-0.22 h 3.76 q 0.44,0 0.78,0.22 0.34,0.22 0.5,0.62 z m -3.16,7.28 -3.32,7.96 h 6.64 z m 37.4,6.72 q 1.68,1.08 2.58,2.64 0.9,1.56 0.9,3.48 0,4.4 -3.4,6.84 -3.16,2.2 -8.52,2.2 -6.08,0 -9.4,-2.64 -3.04,-2.44 -3.48,-6.88 -0.08,-0.64 0.36,-1.08 0.44,-0.44 1.04,-0.44 h 3.12 q 0.56,0 0.96,0.36 0.4,0.36 0.44,0.92 0.08,1.04 0.54,1.78 0.46,0.74 1.42,1.3 1.84,1.04 5.04,1.04 2.76,0 4.28,-0.64 1.16,-0.52 1.56,-1.4 0.24,-0.48 0.24,-1.24 0,-0.48 -0.18,-0.8 -0.18,-0.32 -0.58,-0.6 -1.12,-0.76 -2.96,-1.32 -1.6,-0.48 -4.28,-1.12 -2.44,-0.52 -4.6,-1.4 -2.44,-1.04 -3.84,-2.48 -1.76,-1.76 -1.76,-4.6 0,-3.96 3,-6.4 Q 183,10 188.52,10 q 5.52,0 8.68,2.64 2.96,2.44 3.16,6.28 0.08,0.56 -0.36,1.04 -0.48,0.4 -1,0.4 h -3.12 q -0.52,0 -0.92,-0.34 -0.4,-0.34 -0.44,-0.86 -0.12,-1.04 -0.68,-1.72 -0.8,-1 -2.56,-1.48 -1.2,-0.36 -3.06,-0.36 -1.86,0 -2.96,0.38 -1.1,0.38 -1.62,0.82 -0.52,0.44 -0.64,0.88 -0.2,0.68 -0.2,1.28 0,0.32 0.36,0.68 0.72,0.64 1.6,0.96 1.12,0.48 2.76,0.88 1.64,0.4 3.42,0.84 1.78,0.44 3.38,0.96 1.88,0.64 3.28,1.56 z M 226,10 q 0.56,0 0.96,0.42 0.4,0.42 0.4,0.98 v 2.88 q 0,0.56 -0.4,0.98 -0.4,0.42 -0.96,0.42 h -7.88 v 22.28 q 0,0.56 -0.42,0.98 -0.42,0.42 -0.98,0.42 h -3 q -0.6,0 -1,-0.42 -0.4,-0.42 -0.4,-0.98 V 15.68 h -7.88 q -0.56,0 -0.98,-0.42 -0.42,-0.42 -0.42,-0.98 V 11.4 q 0,-0.56 0.42,-0.98 0.42,-0.42 0.98,-0.42 z"
         id="path39"
         style="fill:url(#linearGradient133)" />
    </g>
    <g
       id="SvgjsG1341"
       featureKey="sloganFeature-0"
       transform="matrix(1.012211,0,0,1.012211,18.995597,141.07319)"
       fill="url(#SvgjsLinearGradient1351)"
       style="fill:url(#linearGradient139)">
      <path
         d="m 1.02,7.62 c 0.02,1.18 0.02,11.2 0.02,12.02 0,0.3 0.04,0.36 0.34,0.36 0.68,0 0.68,0.02 1.36,0 0.14,0 0.38,0 0.5,-0.06 0.14,-0.06 0.06,-4.78 0.06,-5.04 0,-0.28 0.56,-0.22 0.72,-0.22 3.34,0 4.26,-2.4 4.26,-4.44 C 8.28,8.4 7.92,5 3.76,5 3.04,5 2.3,5.02 1.6,5.02 1.44,5.02 1.24,5 1.1,5.1 0.94,5.22 1,7 1.02,7.62 Z m 2.3,4.12 c 0,-0.44 -0.02,-3.06 0,-3.86 0,-0.12 -0.02,-0.26 0,-0.4 C 3.38,7.26 3.64,7.26 3.84,7.28 5,7.36 5.66,8.38 5.76,9.46 5.84,10.24 5.74,11.4 5.18,12.02 4.78,12.44 4.26,12.7 3.58,12.7 3.44,12.7 3.3,12.54 3.3,12.4 c 0,-0.22 0,-0.44 0.02,-0.66 z m 9.44,6.76 c 0,-0.52 0,-3.8 0.02,-4.06 0.02,-0.06 0.06,-0.18 0.14,-0.18 0.08,0 0.12,0.04 0.14,0.1 0.8,1.56 1.5,3.12 2.22,4.64 0.1,0.22 0.32,0.86 0.38,0.92 C 15.74,20.04 15.88,20 16,20 l 2.2,0.02 c 0.26,0 0.32,-0.16 0.26,-0.38 -0.16,-0.6 -1.3,-2.72 -1.56,-3.24 -0.18,-0.4 -1.38,-2.72 -1.42,-2.9 -0.04,-0.08 0.26,-0.22 0.3,-0.28 0.96,-0.86 1.82,-1.74 2,-3.08 C 17.98,8.82 17.68,7.38 16.82,6.32 16.16,5.54 15.3,5.08 14.28,5.02 13.66,4.98 13.06,5.04 12.44,5.02 11.9,5 11.52,5 10.84,5 10.52,5 10.32,5.18 10.3,5.52 v 0.24 c -0.04,1.54 0,3.08 0.02,4.6 0,2.32 -0.04,8.44 -0.04,9.32 0,0.26 0.04,0.32 0.28,0.32 0.14,0 0.3,0.02 0.44,0.02 0.56,0 0.9,-0.02 1.48,-0.02 0.44,0 0.28,-0.72 0.28,-1.5 z m 0,-7.8 0.02,-2.02 c 0.02,-0.3 -0.08,-0.9 0.2,-1.12 0.38,-0.28 1.16,0 1.5,0.24 1,0.68 0.92,2.36 0.38,3.3 -0.26,0.44 -0.7,0.7 -1.2,0.84 -0.3,0.08 -0.86,0.18 -0.88,-0.3 0,-0.32 -0.02,-0.94 -0.02,-0.94 z m 7.74,5.2 h -0.02 c 0,0.5 -0.02,1.02 0,1.54 0.02,0.64 0.06,1.28 0.1,1.92 0,0.22 0.06,0.28 0.26,0.32 0.42,0.1 0.82,0.12 1.24,0.12 1.08,-0.04 2.16,0.04 3.24,0 0.44,-0.02 0.64,0.02 1.08,-0.06 0.4,-0.08 0.54,-0.3 0.54,-0.9 -0.04,-0.38 -0.02,-0.54 -0.02,-1 0,-0.66 -0.46,-0.88 -0.86,-0.86 -0.28,0.02 -1.62,-0.02 -2.16,-0.02 -0.9,0.02 -0.76,0.14 -0.76,-0.8 0,-0.76 0.02,-1.74 0.02,-2.52 0,-0.42 0.04,-0.56 0.44,-0.56 h 2.5 c 0.4,0.06 0.68,-0.22 0.68,-0.64 0,-0.42 0.04,-0.44 0.04,-0.86 l -0.06,-0.6 c -0.04,-0.34 -0.16,-0.46 -0.5,-0.46 -0.22,0 -0.44,0.02 -0.66,0.04 -0.86,0.06 -1.26,-0.06 -2.1,0 -0.28,0 -0.32,-0.04 -0.34,-0.3 -0.08,-0.78 0,-1.64 0.08,-2.42 0.02,-0.32 0.1,-0.38 0.4,-0.4 L 26.46,7.42 C 26.84,7.38 26.96,7.4 26.94,7.02 26.9,6.44 26.96,5.84 26.9,5.26 26.86,4.94 26.76,4.88 26.4,4.88 25.8,4.9 25.66,4.9 25.06,4.94 c -0.6,0.02 -3,0.02 -3.58,0.02 -0.84,0 -0.9,-0.06 -0.92,0.96 -0.04,0.8 -0.02,1.62 -0.02,2.44 0,1.4 -0.08,6.42 -0.04,7.54 z m 16.86,0.42 C 37.48,16.06 37.58,15.8 37.68,15.54 37.9,14.9 37.94,14.24 38,13.58 38.12,12.18 38.08,10.76 37.72,9.4 37.28,7.66 36.16,6.06 34.48,5.32 33.72,4.98 32.86,4.94 32.04,4.96 31.18,4.96 30.3,4.92 29.44,5 29.2,5.02 29.08,5.14 29.04,5.36 29,5.6 28.96,5.84 28.96,6.06 c 0.04,1.22 0,4.84 0.04,5.44 0.02,0.54 -0.04,1.2 -0.04,1.74 0.02,1.34 0,2.7 0,4.04 0,0.56 -0.02,1.1 -0.02,1.66 0,0.6 -0.22,0.86 1.42,0.86 1.46,0 2.98,-0.12 4.36,-0.64 1.28,-0.46 2.08,-1.64 2.64,-2.84 z m -5.82,-2.08 v -2.4 c 0,-1.52 0.04,-2.5 -0.02,-3.78 V 7.82 c 0.02,-0.42 0.08,-0.44 0.52,-0.44 0.58,-0.02 1,0.12 1.5,0.32 0.5,0.2 0.78,0.64 1.04,1.06 0.5,0.82 0.7,1.72 0.74,2.66 0.02,0.54 0.04,1.08 0.04,1.62 0,2.56 -1.5,4.34 -2.82,4.34 -0.88,0 -1.02,0.06 -1.02,-0.52 0,-0.6 0.04,-1.2 0.04,-1.8 -0.02,-0.26 -0.02,-0.54 -0.02,-0.82 z m 11.28,0.6 C 42.76,12.56 42.78,10.14 42.8,7.88 42.8,7.18 42.76,6.42 42.76,5.72 42.76,4.96 42.46,5 42.06,4.98 41.48,4.96 41.22,4.96 40.64,4.96 40.26,4.94 40.1,5.04 40.1,5.42 c 0,1.96 -0.06,7.5 -0.04,8.3 0.02,0.8 0.1,4.44 0.06,5.24 -0.02,0.28 0,0.56 0.02,0.84 0.02,0.1 0.08,0.2 0.24,0.2 0.66,-0.04 1.28,-0.04 1.94,-0.06 0.24,-0.02 0.44,-0.08 0.54,-0.34 0.02,-0.14 -0.04,-3.8 -0.04,-4.76 z m 9.94,-7.48 c 0.02,-0.66 0,-1.2 0,-1.84 0,-0.74 -1.34,-0.66 -1.82,-0.64 -2.14,0.14 -4.18,1.5 -5.16,3.36 -0.28,0.54 -0.48,1.1 -0.62,1.68 -0.34,1.36 -0.36,2.8 -0.2,4.18 0.14,1.3 0.48,2.6 1.28,3.64 1.38,1.82 3.92,2.46 6.1,2.12 0.1,-0.02 0.2,-0.04 0.28,-0.1 0.06,-0.04 0.12,-0.12 0.12,-0.2 l 0.06,-1.14 c 0.02,-0.36 0,-0.34 0,-0.7 0,-0.48 -1,-0.12 -1.62,-0.12 -0.6,0 -1.24,-0.02 -1.78,-0.3 -0.96,-0.54 -1.5,-1.62 -1.8,-2.64 -0.34,-1.1 -0.42,-2.28 -0.22,-3.4 0.24,-1.46 0.94,-3.14 2.48,-3.64 0.88,-0.3 1.82,-0.2 2.7,-0.1 0.12,0.02 0.2,-0.06 0.2,-0.16 z m 4.58,10.46 c 0.02,0.62 0.02,1.24 0.04,1.86 0,0.28 0.02,0.32 0.3,0.32 h 1.8 c 0.38,0 0.3,-0.64 0.28,-0.98 l 0.06,-11.2 c 0,-0.3 0.1,-0.4 0.5,-0.4 h 1.76 C 62.5,7.42 62.4,6.7 62.4,6.2 62.4,5.76 62.56,5 62.08,5 61.74,5 58.48,5 57.14,5.02 56.48,5.02 55.94,5 55.28,5 54.78,5 54.8,5.4 54.8,6.28 c 0,0.56 -0.02,1.12 0.46,1.12 0.28,0 1.42,0 1.74,0.02 0.2,0 0.34,0.06 0.38,0.28 0,0.06 0.02,0.12 0.02,0.18 0,1.44 -0.1,8.14 -0.06,9.94 z m 14.62,0 c 0.02,0.62 0.02,1.24 0.04,1.86 0,0.28 0.02,0.32 0.3,0.32 h 1.8 c 0.38,0 0.3,-0.64 0.28,-0.98 l 0.06,-11.2 c 0,-0.3 0.1,-0.4 0.5,-0.4 H 76.7 C 77.12,7.42 77.02,6.7 77.02,6.2 77.02,5.76 77.18,5 76.7,5 76.36,5 73.1,5 71.76,5.02 71.1,5.02 70.56,5 69.9,5 c -0.5,0 -0.48,0.4 -0.48,1.28 0,0.56 -0.02,1.12 0.46,1.12 0.28,0 1.42,0 1.74,0.02 0.2,0 0.34,0.06 0.38,0.28 0,0.06 0.02,0.12 0.02,0.18 0,1.44 -0.1,8.14 -0.06,9.94 z m 13.08,-3.74 c 0,0.9 -0.02,2.68 -0.04,2.68 v 2.72 c 0,0.12 -0.02,0.32 0.04,0.44 0.06,0.14 0.24,0.1 0.36,0.08 0.58,-0.06 1.16,0.02 1.74,0 0.64,-0.02 0.44,-1 0.42,-1.4 -0.08,-0.88 0.02,-7.58 0.02,-9.98 0,-1.08 -0.04,-3.3 -0.1,-3.4 C 87.38,5.04 87.12,5 86.92,4.98 86.48,4.9 86.26,5.02 85.6,5.02 c -0.66,0 -0.7,0.2 -0.7,0.9 v 0.6 c -0.02,0.48 0.06,3.84 0.06,4.38 0,0.26 -0.02,0.28 -0.28,0.28 -0.66,-0.02 -1.58,0.06 -2.26,0 -0.98,-0.08 -0.76,0 -0.82,-0.9 v -0.12 c 0,-1.28 0.16,-4.6 0.1,-4.8 C 81.6,5.06 81.48,5 81.22,5.02 80.62,5.06 80,4.96 79.4,5 c -0.2,0.02 -0.26,0.08 -0.32,0.28 -0.02,0.1 -0.04,0.2 -0.04,0.3 0,0.62 0.04,1.46 0.06,2.08 l -0.06,11.86 c 0,0.52 0.46,0.46 1.48,0.46 0.94,0 1.18,0.22 1.18,-0.9 0,-0.9 -0.06,-2.04 -0.04,-2.94 0.02,-0.7 0,-1.38 0,-2.08 0.02,-0.26 0.08,-0.34 0.32,-0.34 0.88,-0.02 1.84,0 2.72,0 0.28,0 0.34,0.04 0.34,0.36 z m 4.58,1.82 H 89.6 c 0,0.5 -0.02,1.02 0,1.54 0.02,0.64 0.06,1.28 0.1,1.92 0,0.22 0.06,0.28 0.26,0.32 0.42,0.1 0.82,0.12 1.24,0.12 1.08,-0.04 2.16,0.04 3.24,0 0.44,-0.02 0.64,0.02 1.08,-0.06 0.4,-0.08 0.54,-0.3 0.54,-0.9 -0.04,-0.38 -0.02,-0.54 -0.02,-1 0,-0.66 -0.46,-0.88 -0.86,-0.86 -0.28,0.02 -1.62,-0.02 -2.16,-0.02 -0.9,0.02 -0.76,0.14 -0.76,-0.8 0,-0.76 0.02,-1.74 0.02,-2.52 0,-0.42 0.04,-0.56 0.44,-0.56 h 2.5 c 0.4,0.06 0.68,-0.22 0.68,-0.64 0,-0.42 0.04,-0.44 0.04,-0.86 l -0.06,-0.6 c -0.04,-0.34 -0.16,-0.46 -0.5,-0.46 -0.22,0 -0.44,0.02 -0.66,0.04 -0.86,0.06 -1.26,-0.06 -2.1,0 -0.28,0 -0.32,-0.04 -0.34,-0.3 -0.08,-0.78 0,-1.64 0.08,-2.42 0.02,-0.32 0.1,-0.38 0.4,-0.4 L 95.58,7.42 C 95.96,7.38 96.08,7.4 96.06,7.02 96.02,6.44 96.08,5.84 96.02,5.26 95.98,4.94 95.88,4.88 95.52,4.88 94.92,4.9 94.78,4.9 94.18,4.94 c -0.6,0.02 -3,0.02 -3.58,0.02 -0.84,0 -0.9,-0.06 -0.92,0.96 -0.04,0.8 -0.02,1.62 -0.02,2.44 0,1.4 -0.08,6.42 -0.04,7.54 z m 13.46,0 h -0.02 c 0,0.5 -0.02,1.02 0,1.54 0.02,0.64 0.04,1.28 0.08,1.92 0.02,0.22 0.06,0.28 0.28,0.32 0.4,0.1 0.82,0.12 1.24,0.12 1.08,-0.04 1.08,-0.22 1.08,-0.96 -0.04,-0.38 -0.02,-0.54 -0.02,-1 0,-0.66 -0.02,-0.74 -0.02,-1.68 0.02,-0.76 0.02,-1.74 0.02,-2.52 0,-0.42 0.06,-0.56 0.44,-0.56 h 2.92 c 0.42,0.06 0.26,-0.22 0.26,-0.64 0,-0.42 0.06,-0.44 0.04,-0.86 0,-0.2 -0.04,-0.4 -0.06,-0.6 -0.04,-0.34 -0.16,-0.46 -0.5,-0.46 -0.22,0 -0.02,0.02 -0.22,0.04 -0.86,0.06 -1.68,-0.06 -2.54,0 -0.28,0 -0.32,-0.04 -0.34,-0.3 -0.06,-0.78 0,-1.64 0.08,-2.42 0.04,-0.32 0.1,-0.38 0.4,-0.4 l 2.82,-0.02 c 0.4,-0.04 0.52,-0.02 0.48,-0.4 -0.04,-0.58 0.04,-1.18 -0.04,-1.76 -0.04,-0.32 -0.12,-0.38 -0.48,-0.38 -0.6,0.02 -0.74,0.02 -1.34,0.06 -0.6,0.02 -3.02,0.02 -3.6,0.02 -0.82,0 -0.9,-0.06 -0.92,0.96 -0.02,0.8 -0.02,1.62 -0.02,2.44 0,1.4 -0.08,6.42 -0.02,7.54 z m 8.42,-7.62 c 0,2.02 0.02,4.06 0.06,6.06 0.02,1.22 0,2.6 0.58,3.72 0.74,1.44 2.38,2.08 3.96,1.98 1.08,-0.08 2.08,-0.36 2.86,-1.16 1.32,-1.42 1.06,-3.64 1.08,-5.46 0.04,-2.62 0.1,-5.06 0.1,-7.7 0,-0.44 -0.14,-0.68 -0.58,-0.7 -0.54,-0.02 -1.08,0 -1.62,0.04 -0.22,0 -0.4,0.2 -0.4,0.44 0.02,1.92 0.06,3.86 0.04,5.8 -0.02,1.66 0.2,3.5 -0.42,5.08 -0.24,0.58 -0.78,1.02 -1.42,1.02 -1.6,-0.04 -1.54,-1.94 -1.6,-3.06 -0.12,-2.44 0.06,-4.94 0.12,-7.38 0,-0.46 0,-0.92 0.02,-1.38 0.02,-0.24 0.06,-0.54 -0.26,-0.56 h -0.36 c -0.5,0.04 -1,-0.02 -1.5,0 -0.48,0.04 -0.64,0.18 -0.64,0.66 0,0.86 -0.02,1.74 -0.02,2.6 z m 13.18,9.54 c 0.02,0.62 0.02,1.24 0.04,1.86 0,0.28 0.02,0.32 0.3,0.32 h 1.8 c 0.38,0 0.3,-0.64 0.28,-0.98 l 0.06,-11.2 c 0,-0.3 0.1,-0.4 0.5,-0.4 h 1.76 c 0.42,0 0.32,-0.72 0.32,-1.22 0,-0.44 0.16,-1.2 -0.32,-1.2 -0.34,0 -3.6,0 -4.94,0.02 -0.66,0 -1.2,-0.02 -1.86,-0.02 -0.5,0 -0.48,0.4 -0.48,1.28 0,0.56 -0.02,1.12 0.46,1.12 0.28,0 1.42,0 1.74,0.02 0.2,0 0.34,0.06 0.38,0.28 0,0.06 0.02,0.12 0.02,0.18 0,1.44 -0.1,8.14 -0.06,9.94 z m 7.08,-9.54 c 0,2.02 0.02,4.06 0.06,6.06 0.02,1.22 0,2.6 0.58,3.72 0.74,1.44 2.38,2.08 3.96,1.98 1.08,-0.08 2.08,-0.36 2.86,-1.16 1.32,-1.42 1.06,-3.64 1.08,-5.46 0.04,-2.62 0.1,-5.06 0.1,-7.7 0,-0.44 -0.14,-0.68 -0.58,-0.7 -0.54,-0.02 -1.08,0 -1.62,0.04 -0.22,0 -0.4,0.2 -0.4,0.44 0.02,1.92 0.06,3.86 0.04,5.8 -0.02,1.66 0.2,3.5 -0.42,5.08 -0.24,0.58 -0.78,1.02 -1.42,1.02 -1.6,-0.04 -1.54,-1.94 -1.6,-3.06 -0.12,-2.44 0.06,-4.94 0.12,-7.38 0,-0.46 0,-0.92 0.02,-1.38 0.02,-0.24 0.06,-0.54 -0.26,-0.56 h -0.36 c -0.5,0.04 -1,-0.02 -1.5,0 -0.48,0.04 -0.64,0.18 -0.64,0.66 0,0.86 -0.02,1.74 -0.02,2.6 z m 13.12,10.22 c 0,-0.52 0,-3.8 0.02,-4.06 0.02,-0.06 0.06,-0.18 0.14,-0.18 0.08,0 0.12,0.04 0.14,0.1 0.8,1.56 1.5,3.12 2.22,4.64 0.1,0.22 0.32,0.86 0.38,0.92 0.08,0.12 0.22,0.08 0.34,0.08 l 2.2,0.02 c 0.26,0 0.32,-0.16 0.26,-0.38 -0.16,-0.6 -1.3,-2.72 -1.56,-3.24 -0.18,-0.4 -1.38,-2.72 -1.42,-2.9 -0.04,-0.08 0.26,-0.22 0.3,-0.28 0.96,-0.86 1.82,-1.74 2,-3.08 0.2,-1.32 -0.1,-2.76 -0.96,-3.82 -0.66,-0.78 -1.52,-1.24 -2.54,-1.3 -0.62,-0.04 -1.22,0.02 -1.84,0 C 144.02,5 143.64,5 142.96,5 c -0.32,0 -0.52,0.18 -0.54,0.52 v 0.24 c -0.04,1.54 0,3.08 0.02,4.6 0,2.32 -0.04,8.44 -0.04,9.32 0,0.26 0.04,0.32 0.28,0.32 0.14,0 0.3,0.02 0.44,0.02 0.56,0 0.9,-0.02 1.48,-0.02 0.44,0 0.28,-0.72 0.28,-1.5 z m 0,-7.8 0.02,-2.02 c 0.02,-0.3 -0.08,-0.9 0.2,-1.12 0.38,-0.28 1.16,0 1.5,0.24 1,0.68 0.92,2.36 0.38,3.3 -0.26,0.44 -0.7,0.7 -1.2,0.84 -0.3,0.08 -0.86,0.18 -0.88,-0.3 0,-0.32 -0.02,-0.94 -0.02,-0.94 z m 7.74,5.2 h -0.02 c 0,0.5 -0.02,1.02 0,1.54 0.02,0.64 0.06,1.28 0.1,1.92 0,0.22 0.06,0.28 0.26,0.32 0.42,0.1 0.82,0.12 1.24,0.12 1.08,-0.04 2.16,0.04 3.24,0 0.44,-0.02 0.64,0.02 1.08,-0.06 0.4,-0.08 0.54,-0.3 0.54,-0.9 -0.04,-0.38 -0.02,-0.54 -0.02,-1 0,-0.66 -0.46,-0.88 -0.86,-0.86 -0.28,0.02 -1.62,-0.02 -2.16,-0.02 -0.9,0.02 -0.76,0.14 -0.76,-0.8 0,-0.76 0.02,-1.74 0.02,-2.52 0,-0.42 0.04,-0.56 0.44,-0.56 h 2.5 c 0.4,0.06 0.68,-0.22 0.68,-0.64 0,-0.42 0.04,-0.44 0.04,-0.86 l -0.06,-0.6 c -0.04,-0.34 -0.16,-0.46 -0.5,-0.46 -0.22,0 -0.44,0.02 -0.66,0.04 -0.86,0.06 -1.26,-0.06 -2.1,0 -0.28,0 -0.32,-0.04 -0.34,-0.3 -0.08,-0.78 0,-1.64 0.08,-2.42 0.02,-0.32 0.1,-0.38 0.4,-0.4 l 2.82,-0.02 c 0.38,-0.04 0.5,-0.02 0.48,-0.4 -0.04,-0.58 0.02,-1.18 -0.04,-1.76 -0.04,-0.32 -0.14,-0.38 -0.5,-0.38 -0.6,0.02 -0.74,0.02 -1.34,0.06 -0.6,0.02 -3,0.02 -3.58,0.02 -0.84,0 -0.9,-0.06 -0.92,0.96 -0.04,0.8 -0.02,1.62 -0.02,2.44 0,1.4 -0.08,6.42 -0.04,7.54 z"
         id="path42"
         style="fill:url(#linearGradient137)" />
    </g>
  </g>
</svg>
