<?xml version="1.0" encoding="UTF-8" standalone="no" ?>
<!DOCTYPE svg PUBLIC "-//W3C//DTD SVG 1.1//EN" "http://www.w3.org/Graphics/SVG/1.1/DTD/svg11.dtd">
<svg xmlns="http://www.w3.org/2000/svg" xmlns:xlink="http://www.w3.org/1999/xlink" version="1.1" width="350" height="350" viewBox="0 0 350 350" xml:space="preserve">
<desc>Created with Fabric.js 1.7.22</desc>
<defs>
</defs>
<g id="icon" style="stroke: none; stroke-width: 1; stroke-dasharray: none; stroke-linecap: butt; stroke-linejoin: miter; stroke-miterlimit: 10; fill: none; fill-rule: nonzero; opacity: 1;" transform="translate(-1.9444444444444287 -1.9444444444444287) scale(3.89 3.89)" >
	<path d="M 15.05 35.268 c -0.243 0 -0.491 -0.044 -0.73 -0.139 c -1.028 -0.404 -1.534 -1.565 -1.131 -2.593 c 3.723 -9.479 11.395 -16.759 21.049 -19.974 c 1.046 -0.351 2.18 0.218 2.529 1.266 c 0.349 1.048 -0.218 2.181 -1.266 2.529 c -8.526 2.839 -15.302 9.269 -18.589 17.641 C 16.603 34.786 15.849 35.268 15.05 35.268 z" style="stroke: none; stroke-width: 1; stroke-dasharray: none; stroke-linecap: butt; stroke-linejoin: miter; stroke-miterlimit: 10; fill: rgb(254,206,70); fill-rule: nonzero; opacity: 1;" transform=" matrix(1 0 0 1 0 0) " stroke-linecap="round" />
	<path d="M 45.059 79.272 c -1.104 0 -2 -0.896 -2 -2 s 0.896 -2 2 -2 c 16.667 0 30.228 -13.561 30.228 -30.229 c 0 -1.104 0.896 -2 2 -2 s 2 0.896 2 2 C 79.287 63.918 63.933 79.272 45.059 79.272 z" style="stroke: none; stroke-width: 1; stroke-dasharray: none; stroke-linecap: butt; stroke-linejoin: miter; stroke-miterlimit: 10; fill: rgb(254,206,70); fill-rule: nonzero; opacity: 1;" transform=" matrix(1 0 0 1 0 0) " stroke-linecap="round" />
	<path d="M 45 90 C 20.187 90 0 69.813 0 45 C 0 20.187 20.187 0 45 0 c 6.984 0 13.681 1.557 19.9 4.628 c 0.99 0.489 1.396 1.688 0.907 2.679 c -0.488 0.99 -1.687 1.397 -2.679 0.908 C 57.465 5.418 51.365 4 45 4 C 22.393 4 4 22.393 4 45 s 18.393 41 41 41 s 41 -18.393 41 -41 c 0 -7.9 -2.251 -15.569 -6.509 -22.177 c -0.599 -0.929 -0.331 -2.167 0.598 -2.765 c 0.929 -0.597 2.166 -0.331 2.765 0.598 C 87.528 27.912 90 36.33 90 45 C 90 69.813 69.813 90 45 90 z" style="stroke: none; stroke-width: 1; stroke-dasharray: none; stroke-linecap: butt; stroke-linejoin: miter; stroke-miterlimit: 10; fill: rgb(254,206,70); fill-rule: nonzero; opacity: 1;" transform=" matrix(1 0 0 1 0 0) " stroke-linecap="round" />
	<path d="M 79.113 10.97 h -2.936 V 8.034 c 0 -1.104 -0.896 -2 -2 -2 s -2 0.896 -2 2 v 2.936 h -2.936 c -1.104 0 -2 0.896 -2 2 s 0.896 2 2 2 h 2.936 v 2.936 c 0 1.104 0.896 2 2 2 s 2 -0.896 2 -2 V 14.97 h 2.936 c 1.104 0 2 -0.896 2 -2 S 80.218 10.97 79.113 10.97 z" style="stroke: none; stroke-width: 1; stroke-dasharray: none; stroke-linecap: butt; stroke-linejoin: miter; stroke-miterlimit: 10; fill: rgb(254,206,70); fill-rule: nonzero; opacity: 1;" transform=" matrix(1 0 0 1 0 0) " stroke-linecap="round" />
	<path d="M 56.354 50.673 c -1.104 0 -2 0.896 -2 2 c 0 2.152 -1.751 3.903 -3.903 3.903 H 39.549 c -2.152 0 -3.903 -1.751 -3.903 -3.903 V 37.328 c 0 -2.152 1.751 -3.904 3.903 -3.904 h 10.902 c 2.152 0 3.903 1.751 3.903 3.904 c 0 1.104 0.896 2 2 2 s 2 -0.896 2 -2 c 0 -4.358 -3.546 -7.904 -7.903 -7.904 H 47 V 25.5 c 0 -1.104 -0.896 -2 -2 -2 s -2 0.896 -2 2 v 3.924 h -3.451 c -4.358 0 -7.903 3.545 -7.903 7.904 v 15.345 c 0 4.357 3.545 7.903 7.903 7.903 H 43 V 64.5 c 0 1.104 0.896 2 2 2 s 2 -0.896 2 -2 v -3.924 h 3.451 c 4.357 0 7.903 -3.546 7.903 -7.903 C 58.354 51.568 57.459 50.673 56.354 50.673 z" style="stroke: none; stroke-width: 1; stroke-dasharray: none; stroke-linecap: butt; stroke-linejoin: miter; stroke-miterlimit: 10; fill: rgb(14,49,69); fill-rule: nonzero; opacity: 1;" transform=" matrix(1 0 0 1 0 0) " stroke-linecap="round" />
</g>
</svg>