<?xml version="1.0" encoding="UTF-8" standalone="no"?>
<svg
   version="1.1"
   width="937.5"
   height="846.61597"
   viewBox="0 0 937.5 846.61598"
   id="svg41"
   sodipodi:docname="Color ball.svg"
   inkscape:version="1.1 (c4e8f9ed74, 2021-05-24)"
   xmlns:inkscape="http://www.inkscape.org/namespaces/inkscape"
   xmlns:sodipodi="http://sodipodi.sourceforge.net/DTD/sodipodi-0.dtd"
   xmlns:xlink="http://www.w3.org/1999/xlink"
   xmlns="http://www.w3.org/2000/svg"
   xmlns:svg="http://www.w3.org/2000/svg">
  <defs
     id="defs45">
    <linearGradient
       inkscape:collect="always"
       xlink:href="#SvgjsLinearGradient1811"
       id="linearGradient146"
       gradientTransform="scale(0.88373737,1.1315579)"
       x1="29.646817"
       y1="10.339727"
       x2="72.419706"
       y2="10.339727"
       gradientUnits="userSpaceOnUse" />
    <linearGradient
       inkscape:collect="always"
       xlink:href="#SvgjsLinearGradient1811"
       id="linearGradient148"
       x1="49.6"
       y1="23.2"
       x2="53.3"
       y2="23.2"
       gradientUnits="userSpaceOnUse" />
    <linearGradient
       inkscape:collect="always"
       xlink:href="#SvgjsLinearGradient1811"
       id="linearGradient150"
       x1="65.8"
       y1="21.6"
       x2="70.6"
       y2="21.6"
       gradientUnits="userSpaceOnUse" />
    <linearGradient
       inkscape:collect="always"
       xlink:href="#SvgjsLinearGradient1811"
       id="linearGradient152"
       x1="50.8"
       y1="5.7"
       x2="55.8"
       y2="5.7"
       gradientUnits="userSpaceOnUse" />
    <linearGradient
       inkscape:collect="always"
       xlink:href="#SvgjsLinearGradient1811"
       id="linearGradient154"
       x1="55.6"
       y1="27.6"
       x2="57.4"
       y2="27.6"
       gradientUnits="userSpaceOnUse" />
    <linearGradient
       inkscape:collect="always"
       xlink:href="#SvgjsLinearGradient1811"
       id="linearGradient156"
       x1="66.299997"
       y1="15.399999"
       x2="68.099997"
       y2="15.399999"
       gradientUnits="userSpaceOnUse" />
    <linearGradient
       inkscape:collect="always"
       xlink:href="#SvgjsLinearGradient1811"
       id="linearGradient158"
       x1="57"
       y1="31.299999"
       x2="58"
       y2="31.299999"
       gradientUnits="userSpaceOnUse" />
    <linearGradient
       inkscape:collect="always"
       xlink:href="#SvgjsLinearGradient1811"
       id="linearGradient160"
       x1="51.099998"
       y1="36.900002"
       x2="52.099998"
       y2="36.900002"
       gradientUnits="userSpaceOnUse" />
    <linearGradient
       inkscape:collect="always"
       xlink:href="#SvgjsLinearGradient1811"
       id="linearGradient162"
       x1="42.900002"
       y1="20.299999"
       x2="43.900002"
       y2="20.299999"
       gradientUnits="userSpaceOnUse" />
    <linearGradient
       inkscape:collect="always"
       xlink:href="#SvgjsLinearGradient1811"
       id="linearGradient164"
       x1="67.199997"
       y1="31.299999"
       x2="68.199997"
       y2="31.299999"
       gradientUnits="userSpaceOnUse" />
    <linearGradient
       inkscape:collect="always"
       xlink:href="#SvgjsLinearGradient1811"
       id="linearGradient166"
       gradientTransform="scale(1.1299466,0.88499756)"
       x1="29.373464"
       y1="74.350487"
       x2="50.277477"
       y2="74.350487"
       gradientUnits="userSpaceOnUse" />
    <linearGradient
       inkscape:collect="always"
       xlink:href="#SvgjsLinearGradient1811"
       id="linearGradient168"
       gradientTransform="scale(1.2412402,0.80564581)"
       x1="48.32641"
       y1="81.673608"
       x2="71.289355"
       y2="81.673608"
       gradientUnits="userSpaceOnUse" />
    <linearGradient
       inkscape:collect="always"
       xlink:href="#SvgjsLinearGradient1811"
       id="linearGradient170"
       gradientTransform="scale(1.2426145,0.80475482)"
       x1="1.1665139"
       y1="81.764033"
       x2="24.154882"
       y2="81.764033"
       gradientUnits="userSpaceOnUse" />
    <linearGradient
       inkscape:collect="always"
       xlink:href="#SvgjsLinearGradient1811"
       id="linearGradient172"
       gradientTransform="scale(1.0523069,0.95029314)"
       x1="1.3774757"
       y1="5.9981491"
       x2="84.088795"
       y2="5.9981491"
       gradientUnits="userSpaceOnUse" />
    <linearGradient
       inkscape:collect="always"
       xlink:href="#SvgjsLinearGradient1814"
       id="linearGradient174"
       x1="0"
       y1="0"
       x2="1"
       y2="0"
       gradientUnits="userSpaceOnUse" />
  </defs>
  <sodipodi:namedview
     id="namedview43"
     pagecolor="#ffffff"
     bordercolor="#666666"
     borderopacity="1.0"
     inkscape:pageshadow="2"
     inkscape:pageopacity="0.0"
     inkscape:pagecheckerboard="0"
     showgrid="false"
     inkscape:zoom="0.41254902"
     inkscape:cx="1498.0038"
     inkscape:cy="422.98004"
     inkscape:window-width="1920"
     inkscape:window-height="1052"
     inkscape:window-x="1080"
     inkscape:window-y="319"
     inkscape:window-maximized="1"
     inkscape:current-layer="svg41" />
  <g
     transform="matrix(9.375,0,0,9.375,3.1645892e-7,-2.0544426e-6)"
     id="g39">
    <defs
       id="SvgjsDefs1806">
      <linearGradient
         id="SvgjsLinearGradient1811">
        <stop
           id="SvgjsStop1812"
           stop-color="#6d7cff"
           offset="0" />
        <stop
           id="SvgjsStop1813"
           stop-color="#ff51ff"
           offset="1" />
      </linearGradient>
      <linearGradient
         id="SvgjsLinearGradient1814">
        <stop
           id="SvgjsStop1815"
           stop-color="#6d7cff"
           offset="0" />
        <stop
           id="SvgjsStop1816"
           stop-color="#ff51ff"
           offset="1" />
      </linearGradient>
    </defs>
    <g
       id="SvgjsG1807"
       featureKey="symbolFeature-0"
       transform="matrix(1.1489276,0,0,1.1489276,-1.6654017,-6.5488869)"
       fill="url(#SvgjsLinearGradient1811)"
       style="fill:url(#linearGradient172)">
      <path
         d="m 57.3,11.7 c -0.4,2.2 -0.7,3.6 -1.4,4.6 -3.1,-2.3 -6.9,-3.6 -11,-3.6 -10.3,0 -18.7,8.4 -18.7,18.7 0,6.4 3.2,12 8,15.4 -1,0.5 -1.5,1.1 -1.5,1.8 v 1.9 c -1.3,0.6 -2,1.3 -2,2.2 v 3.4 c 0,2.6 7.2,4 14.3,4 7.1,0 14.3,-1.4 14.3,-4 v -3.4 c 0,-0.8 -0.7,-1.6 -2,-2.2 v -1.9 c 0,-0.7 -0.6,-1.3 -1.6,-1.8 4.8,-3.4 7.9,-9 7.9,-15.3 0,-4.4 -1.5,-8.4 -4.1,-11.6 0.9,-0.7 2.3,-1 4.5,-1.4 -5.1,-1 -5.8,-1.7 -6.7,-6.8 z M 32.2,56.4 C 32,56.2 31.9,56 31.9,55.9 v -1.7 c 0.1,0.1 0.2,0.1 0.3,0.2 z m 1.1,0.6 c -0.2,-0.1 -0.4,-0.2 -0.6,-0.3 v -2.1 c 0.2,0.1 0.4,0.2 0.6,0.2 z m 0.5,-7.1 c 0.1,0.1 0.3,0.2 0.4,0.2 v 1.8 c -0.3,-0.2 -0.4,-0.4 -0.4,-0.5 z m 0.9,7.6 C 34.4,57.4 34,57.3 33.8,57.2 v -2.1 c 0.3,0.1 0.6,0.2 0.9,0.3 z m 0,-5.3 v -1.8 c 0.2,0.1 0.4,0.1 0.6,0.2 v 1.8 c -0.3,0 -0.5,-0.1 -0.6,-0.2 z m 20.1,5.4 c -2.2,0.6 -5.5,1 -9.8,1 -4.3,0 -7.6,-0.5 -9.8,-1 v -2.1 c 2.7,0.7 6.3,1 9.8,1 3.6,0 7.1,-0.3 9.8,-1 z m -19.1,-5 v -1.8 c 0.3,0.1 0.6,0.2 0.9,0.3 V 53 C 36.3,52.8 36,52.7 35.7,52.6 Z m 1.4,0.4 v -1.9 c 2.2,0.5 5,0.7 7.9,0.7 2.8,0 5.7,-0.3 7.9,-0.8 v 2 C 51,53.4 48.4,53.8 45,53.8 41.6,53.8 39,53.5 37.1,53 Z M 53.4,52.9 V 51 c 0.3,-0.1 0.6,-0.2 0.9,-0.3 v 1.8 c -0.2,0.2 -0.5,0.3 -0.9,0.4 z m 4.4,1.5 c 0.1,-0.1 0.2,-0.1 0.3,-0.2 v 1.7 c 0,0.1 -0.1,0.3 -0.3,0.5 z m -1,0.5 c 0.2,-0.1 0.4,-0.2 0.6,-0.2 v 2.1 c -0.2,0.1 -0.3,0.2 -0.6,0.3 z M 55.9,50.1 C 56,50 56.1,50 56.2,49.9 v 1.4 c 0,0.1 -0.1,0.3 -0.3,0.5 z m 0.4,5 v 2.1 c -0.3,0.1 -0.6,0.2 -0.9,0.3 v -2.1 c 0.3,-0.1 0.6,-0.2 0.9,-0.3 z m -1.4,-2.7 v -1.8 c 0.2,-0.1 0.4,-0.1 0.6,-0.2 v 1.8 c -0.2,0 -0.4,0.1 -0.6,0.2 z m -10,-4.3 c -9.2,0 -16.7,-7.5 -16.7,-16.7 0,-9.2 7.5,-16.7 16.7,-16.7 3.5,0 6.7,1.1 9.3,2.9 -0.9,0.4 -2,0.6 -3.6,0.9 5.1,0.9 5.8,1.6 6.7,6.7 0.3,-1.7 0.5,-2.8 0.9,-3.7 2.1,2.8 3.4,6.3 3.4,10 0,9.1 -7.5,16.6 -16.7,16.6 z"
         id="path9"
         style="fill:url(#linearGradient146)" />
      <path
         d="m 53.2,23.2 c -1.6,1.2 -2,1.2 -3.6,0.1 1.2,1.6 1.2,2 0.1,3.6 1.6,-1.2 2,-1.2 3.6,-0.1 -1.2,-1.6 -1.2,-2 -0.1,-3.6 z"
         id="path11"
         style="fill:url(#linearGradient148)" />
      <path
         d="m 70.6,23.2 c -1.9,0.3 -2.3,0.1 -3.2,-1.6 0.3,1.9 0.1,2.3 -1.6,3.2 1.9,-0.3 2.3,-0.1 3.2,1.6 -0.3,-1.9 -0.2,-2.2 1.6,-3.2 z"
         id="path13"
         style="fill:url(#linearGradient150)" />
      <path
         d="m 53.8,10.7 c 0,-2 0.2,-2.3 2,-3 -2,0 -2.3,-0.2 -3,-2 0,2 -0.2,2.3 -2,3 2,-0.1 2.3,0.1 3,2 z"
         id="path15"
         style="fill:url(#linearGradient152)" />
      <circle
         cx="56.5"
         cy="28.5"
         r="0.89999998"
         id="circle17"
         style="fill:url(#linearGradient154)" />
      <circle
         cx="67.199997"
         cy="16.299999"
         r="0.89999998"
         id="circle19"
         style="fill:url(#linearGradient156)" />
      <circle
         cx="57.5"
         cy="31.799999"
         r="0.5"
         id="circle21"
         style="fill:url(#linearGradient158)" />
      <circle
         cx="51.599998"
         cy="37.400002"
         r="0.5"
         id="circle23"
         style="fill:url(#linearGradient160)" />
      <circle
         cx="43.400002"
         cy="20.799999"
         r="0.5"
         id="circle25"
         style="fill:url(#linearGradient162)" />
      <circle
         cx="67.699997"
         cy="31.799999"
         r="0.5"
         id="circle27"
         style="fill:url(#linearGradient164)" />
      <path
         d="M 53.7,66.5 C 53.6,66.1 53.1,65.8 52.5,65.8 H 37.6 c -0.6,0 -1.2,0.3 -1.2,0.7 l -3.2,17.1 c -0.1,0.4 0.6,0.7 1.4,0.7 h 20.8 c 0.9,0 1.5,-0.3 1.4,-0.7 z m -3.7,7.4 -2.2,1.2 c -0.1,0 -0.1,0.1 -0.1,0.1 l 0.6,1.7 c 0,0.1 -0.2,0.2 -0.3,0.1 l -2.9,-0.8 c -0.1,0 -0.1,0 -0.2,0 L 42,77 c -0.2,0 -0.4,0 -0.3,-0.1 l 0.6,-1.7 c 0,0 0,-0.1 -0.1,-0.1 L 40,73.9 c -0.1,-0.1 0,-0.2 0.1,-0.2 l 3.1,-0.2 c 0.1,0 0.1,0 0.2,-0.1 l 1.4,-1.5 c 0.1,-0.1 0.3,-0.1 0.4,0 l 1.4,1.5 c 0,0 0.1,0.1 0.2,0.1 l 3.1,0.2 c 0.2,0 0.3,0.2 0.1,0.2 z"
         id="path29"
         style="fill:url(#linearGradient166)" />
      <path
         d="M 88.4,83.6 77.4,66.5 C 77.2,66.1 76.5,65.8 75.8,65.8 H 60.9 c -0.6,0 -1,0.3 -0.9,0.7 l 4.7,17.1 c 0.1,0.4 0.9,0.7 1.8,0.7 h 20.8 c 0.9,0 1.4,-0.3 1.1,-0.7 z m -10.2,-9 -2.4,0.5 2,1.4 c 0.2,0.1 0,0.2 -0.2,0.2 L 74.4,76 74,77.5 c 0,0.1 -0.3,0.1 -0.4,0 L 71.9,76 69.4,76.6 C 69.2,76.7 68.9,76.5 69,76.4 L 69.7,75 66.8,74.5 c -0.2,0 -0.3,-0.2 -0.1,-0.2 l 2.5,-0.5 -1.8,-1.4 c -0.1,-0.1 0,-0.2 0.2,-0.2 l 2.8,0.6 0.4,-1.4 c 0,-0.1 0.3,-0.1 0.4,0 l 1.7,1.4 2.2,-0.6 c 0.2,-0.1 0.4,0.1 0.4,0.2 l -0.5,1.4 3,0.6 c 0.3,0 0.4,0.1 0.2,0.2 z"
         id="path31"
         style="fill:url(#linearGradient168)" />
      <path
         d="M 29,65.8 H 14.1 v 0 c -0.6,0 -1.3,0.3 -1.6,0.7 l -11,17.1 c -0.2,0.4 0.2,0.7 1.1,0.7 h 20.8 c 0,0 0,0 0,0 0.9,0 1.6,-0.3 1.8,-0.7 L 30,66.5 c 0.1,-0.4 -0.3,-0.7 -1,-0.7 z m -7,9.9 c -1.8,1.2 -5.1,1.8 -7.5,1.2 C 12.6,76.4 12,75.2 13,74 c 1.2,-1.4 3.8,-2.3 6.1,-2.3 0.2,0 0.2,0.1 0,0.2 -1.1,0.4 -2.1,0.9 -2.5,1.7 -0.5,0.8 0,1.6 1.1,2 1.2,0.4 2.7,0.4 4,0 0.3,-0.1 0.4,0 0.3,0.1 z"
         id="path33"
         style="fill:url(#linearGradient170)" />
    </g>
    <g
       id="SvgjsG1808"
       featureKey="nameFeature-0"
       transform="matrix(0.88053463,0,0,0.88053463,119.80165,23.194657)"
       fill="url(#SvgjsLinearGradient1814)"
       style="fill:url(#linearGradient174)" />
  </g>
</svg>
