
        <svg xmlns="http://www.w3.org/2000/svg" xmlns:xlink="http://www.w3.org/1999/xlink" version="1.1" width="3187.5" 
        height="1034.1159802629757" viewBox="0 0 3187.5 1034.1159802629757">
			
			<g transform="scale(9.375) translate(10, 10)">
				<defs id="SvgjsDefs1806"><linearGradient id="SvgjsLinearGradient1811"><stop id="SvgjsStop1812" stop-color="#6d7cff" offset="0"></stop><stop id="SvgjsStop1813" stop-color="#ff51ff" offset="1"></stop></linearGradient><linearGradient id="SvgjsLinearGradient1814"><stop id="SvgjsStop1815" stop-color="#6d7cff" offset="0"></stop><stop id="SvgjsStop1816" stop-color="#ff51ff" offset="1"></stop></linearGradient></defs><g id="SvgjsG1807" featureKey="symbolFeature-0" transform="matrix(1.1489275612532877,0,0,1.1489275612532877,-1.665401687022778,-6.548886880003199)" fill="url(#SvgjsLinearGradient1811)"><path xmlns="http://www.w3.org/2000/svg" d="M57.3,11.7c-0.4,2.2-0.7,3.6-1.4,4.6c-3.1-2.3-6.9-3.6-11-3.6c-10.3,0-18.7,8.4-18.7,18.7c0,6.4,3.2,12,8,15.4  c-1,0.5-1.5,1.1-1.5,1.8v1.9c-1.3,0.6-2,1.3-2,2.2v3.4c0,2.6,7.2,4,14.3,4c7.1,0,14.3-1.4,14.3-4v-3.4c0-0.8-0.7-1.6-2-2.2v-1.9  c0-0.7-0.6-1.3-1.6-1.8c4.8-3.4,7.9-9,7.9-15.3c0-4.4-1.5-8.4-4.1-11.6c0.9-0.7,2.3-1,4.5-1.4C58.9,17.5,58.2,16.8,57.3,11.7z   M32.2,56.4c-0.2-0.2-0.3-0.4-0.3-0.5v-1.7c0.1,0.1,0.2,0.1,0.3,0.2V56.4z M33.3,57c-0.2-0.1-0.4-0.2-0.6-0.3v-2.1  c0.2,0.1,0.4,0.2,0.6,0.2V57z M33.8,49.9c0.1,0.1,0.3,0.2,0.4,0.2v1.8c-0.3-0.2-0.4-0.4-0.4-0.5V49.9z M34.7,57.5  c-0.3-0.1-0.7-0.2-0.9-0.3v-2.1c0.3,0.1,0.6,0.2,0.9,0.3V57.5z M34.7,52.2v-1.8c0.2,0.1,0.4,0.1,0.6,0.2v1.8  C35,52.4,34.8,52.3,34.7,52.2z M54.8,57.6c-2.2,0.6-5.5,1-9.8,1c-4.3,0-7.6-0.5-9.8-1v-2.1c2.7,0.7,6.3,1,9.8,1c3.6,0,7.1-0.3,9.8-1  V57.6z M35.7,52.6v-1.8c0.3,0.1,0.6,0.2,0.9,0.3v1.9C36.3,52.8,36,52.7,35.7,52.6z M37.1,53v-1.9c2.2,0.5,5,0.7,7.9,0.7  c2.8,0,5.7-0.3,7.9-0.8V53c-1.9,0.4-4.5,0.8-7.9,0.8C41.6,53.8,39,53.5,37.1,53z M53.4,52.9V51c0.3-0.1,0.6-0.2,0.9-0.3v1.8  C54.1,52.7,53.8,52.8,53.4,52.9z M57.8,54.4c0.1-0.1,0.2-0.1,0.3-0.2v1.7c0,0.1-0.1,0.3-0.3,0.5V54.4z M56.8,54.9  c0.2-0.1,0.4-0.2,0.6-0.2v2.1c-0.2,0.1-0.3,0.2-0.6,0.3V54.9z M55.9,50.1c0.1-0.1,0.2-0.1,0.3-0.2v1.4c0,0.1-0.1,0.3-0.3,0.5V50.1z   M56.3,55.1v2.1c-0.3,0.1-0.6,0.2-0.9,0.3v-2.1C55.7,55.3,56,55.2,56.3,55.1z M54.9,52.4v-1.8c0.2-0.1,0.4-0.1,0.6-0.2v1.8  C55.3,52.2,55.1,52.3,54.9,52.4z M44.9,48.1c-9.2,0-16.7-7.5-16.7-16.7s7.5-16.7,16.7-16.7c3.5,0,6.7,1.1,9.3,2.9  c-0.9,0.4-2,0.6-3.6,0.9c5.1,0.9,5.8,1.6,6.7,6.7c0.3-1.7,0.5-2.8,0.9-3.7c2.1,2.8,3.4,6.3,3.4,10C61.6,40.6,54.1,48.1,44.9,48.1z"></path><path xmlns="http://www.w3.org/2000/svg" d="M53.2,23.2c-1.6,1.2-2,1.2-3.6,0.1c1.2,1.6,1.2,2,0.1,3.6c1.6-1.2,2-1.2,3.6-0.1C52.1,25.2,52.1,24.8,53.2,23.2z"></path><path xmlns="http://www.w3.org/2000/svg" d="M70.6,23.2c-1.9,0.3-2.3,0.1-3.2-1.6c0.3,1.9,0.1,2.3-1.6,3.2c1.9-0.3,2.3-0.1,3.2,1.6C68.7,24.5,68.8,24.2,70.6,23.2z"></path><path xmlns="http://www.w3.org/2000/svg" d="M53.8,10.7c0-2,0.2-2.3,2-3c-2,0-2.3-0.2-3-2c0,2-0.2,2.3-2,3C52.8,8.6,53.1,8.8,53.8,10.7z"></path><circle xmlns="http://www.w3.org/2000/svg" cx="56.5" cy="28.5" r="0.9"></circle><circle xmlns="http://www.w3.org/2000/svg" cx="67.2" cy="16.3" r="0.9"></circle><circle xmlns="http://www.w3.org/2000/svg" cx="57.5" cy="31.8" r="0.5"></circle><circle xmlns="http://www.w3.org/2000/svg" cx="51.6" cy="37.4" r="0.5"></circle><circle xmlns="http://www.w3.org/2000/svg" cx="43.4" cy="20.8" r="0.5"></circle><circle xmlns="http://www.w3.org/2000/svg" cx="67.7" cy="31.8" r="0.5"></circle><path xmlns="http://www.w3.org/2000/svg" d="M53.7,66.5c-0.1-0.4-0.6-0.7-1.2-0.7l-14.9,0c-0.6,0-1.2,0.3-1.2,0.7l-3.2,17.1c-0.1,0.4,0.6,0.7,1.4,0.7l20.8,0  c0.9,0,1.5-0.3,1.4-0.7L53.7,66.5z M50,73.9l-2.2,1.2c-0.1,0-0.1,0.1-0.1,0.1l0.6,1.7c0,0.1-0.2,0.2-0.3,0.1l-2.9-0.8  c-0.1,0-0.1,0-0.2,0L42,77c-0.2,0-0.4,0-0.3-0.1l0.6-1.7c0,0,0-0.1-0.1-0.1L40,73.9c-0.1-0.1,0-0.2,0.1-0.2l3.1-0.2  c0.1,0,0.1,0,0.2-0.1l1.4-1.5c0.1-0.1,0.3-0.1,0.4,0l1.4,1.5c0,0,0.1,0.1,0.2,0.1l3.1,0.2C50.1,73.7,50.2,73.9,50,73.9z"></path><path xmlns="http://www.w3.org/2000/svg" d="M88.4,83.6l-11-17.1c-0.2-0.4-0.9-0.7-1.6-0.7l-14.9,0c-0.6,0-1,0.3-0.9,0.7l4.7,17.1c0.1,0.4,0.9,0.7,1.8,0.7l20.8,0  C88.2,84.3,88.7,84,88.4,83.6z M78.2,74.6l-2.4,0.5l2,1.4c0.2,0.1,0,0.2-0.2,0.2L74.4,76L74,77.5c0,0.1-0.3,0.1-0.4,0L71.9,76  l-2.5,0.6c-0.2,0.1-0.5-0.1-0.4-0.2l0.7-1.4l-2.9-0.5c-0.2,0-0.3-0.2-0.1-0.2l2.5-0.5l-1.8-1.4c-0.1-0.1,0-0.2,0.2-0.2l2.8,0.6  l0.4-1.4c0-0.1,0.3-0.1,0.4,0l1.7,1.4l2.2-0.6c0.2-0.1,0.4,0.1,0.4,0.2L75,73.8l3,0.6C78.3,74.4,78.4,74.5,78.2,74.6z"></path><path xmlns="http://www.w3.org/2000/svg" d="M29,65.8l-14.9,0h0c-0.6,0-1.3,0.3-1.6,0.7l-11,17.1c-0.2,0.4,0.2,0.7,1.1,0.7l20.8,0c0,0,0,0,0,0c0.9,0,1.6-0.3,1.8-0.7  L30,66.5C30.1,66.1,29.7,65.8,29,65.8z M22,75.7c-1.8,1.2-5.1,1.8-7.5,1.2C12.6,76.4,12,75.2,13,74c1.2-1.4,3.8-2.3,6.1-2.3  c0.2,0,0.2,0.1,0,0.2c-1.1,0.4-2.1,0.9-2.5,1.7c-0.5,0.8,0,1.6,1.1,2c1.2,0.4,2.7,0.4,4,0C22,75.5,22.1,75.6,22,75.7z"></path></g><g id="SvgjsG1808" featureKey="nameFeature-0" transform="matrix(0.8805346302731342,0,0,0.8805346302731342,119.80164686837568,23.194657056241702)" fill="url(#SvgjsLinearGradient1814)"><path d="M29.56 37.72 q0.28 0.64 -0.14 1.3 t-1.14 0.66 l-26.64 0 q-0.36 0 -0.68 -0.18 t-0.48 -0.46 q-0.44 -0.64 -0.12 -1.32 l1.24 -2.92 q0.16 -0.4 0.52 -0.64 t0.76 -0.24 l18.64 0 l-6.56 -15.68 l-5.36 12.8 q-0.16 0.4 -0.5 0.62 t-0.78 0.22 l-3.36 0 q-0.76 0 -1.2 -0.64 q-0.16 -0.28 -0.2 -0.64 t0.08 -0.68 l8.12 -19.04 q0.16 -0.4 0.5 -0.64 t0.78 -0.24 l3.84 0 q0.44 0 0.78 0.24 t0.5 0.64 z M56.4 10 q0.68 0 1.16 0.6 q0.4 0.68 0.12 1.32 l-10.76 26.56 q-0.16 0.4 -0.52 0.64 t-0.76 0.24 l-3.44 0 q-0.44 0 -0.78 -0.24 t-0.54 -0.64 l-10.76 -26.56 q-0.28 -0.72 0.16 -1.32 q0.2 -0.28 0.5 -0.44 t0.66 -0.16 l3.28 0 q0.4 0 0.76 0.24 t0.52 0.64 l7.92 19.88 l7.88 -19.88 q0.2 -0.4 0.54 -0.64 t0.78 -0.24 l3.28 0 z M75.88 10.84 l11.2 26.44 q0.2 0.32 0.2 0.68 q0 0.56 -0.4 0.98 t-1 0.42 l-3.32 0 q-0.44 0 -0.78 -0.22 t-0.5 -0.62 l-2.92 -6.88 l-11.32 0 l-2.88 6.88 q-0.16 0.4 -0.5 0.62 t-0.78 0.22 l-3.32 0 q-0.36 0 -0.68 -0.18 t-0.5 -0.46 t-0.22 -0.62 t0.12 -0.66 l11.28 -26.6 q0.16 -0.4 0.5 -0.62 t0.78 -0.22 l3.76 0 q0.44 0 0.78 0.22 t0.5 0.62 z M72.72 18.12 l-3.32 7.96 l6.64 0 z M104.76 24.240000000000002 l9.84 12.76 q0.4 0.4 0.4 0.96 t-0.42 0.98 t-0.98 0.42 l-3.8 0 q-0.32 0 -0.64 -0.14 t-0.48 -0.42 l-7.52 -9.92 l-7.48 9.92 q-0.44 0.56 -1.12 0.56 l-3.8 0 q-0.4 0 -0.74 -0.22 t-0.52 -0.56 t-0.14 -0.76 t0.28 -0.7 l9.96 -12.88 l-9.24 -12 q-0.24 -0.28 -0.28 -0.7 t0.14 -0.76 t0.52 -0.56 t0.74 -0.22 l3.8 0 q0.68 0 1.12 0.56 l6.76 8.96 l6.8 -8.96 q0.16 -0.28 0.48 -0.42 t0.64 -0.14 l3.8 0 q0.4 0 0.72 0.22 t0.52 0.56 t0.16 0.76 t-0.32 0.7 z M127.16000000000001 16.44 q-1.64 0.68 -2.68 1.92 q-2.24 2.48 -2.24 6.64 t2.24 6.68 q2.32 2.6 6.88 2.6 q2.4 0 4.22 -1.22 t2.7 -3.26 q0.16 -0.4 0.5 -0.62 t0.78 -0.22 l3.16 0 q0.32 0 0.64 0.14 t0.48 0.42 q0.44 0.64 0.2 1.28 q-1.48 4.2 -4.88 6.6 q-3.64 2.6 -8.48 2.6 q-6.44 0 -10.48 -4.44 q-3.76 -4.24 -3.76 -10.56 t3.76 -10.56 q4.04 -4.44 10.48 -4.44 q4.84 0 8.48 2.6 q3.36 2.4 4.88 6.6 q0.24 0.68 -0.2 1.28 q-0.16 0.28 -0.48 0.42 t-0.64 0.14 l-3.16 0 q-0.44 0 -0.78 -0.22 t-0.5 -0.62 q-0.88 -2.04 -2.7 -3.26 t-4.22 -1.22 q-2.56 0 -4.2 0.72 z M163.36 10.84 l11.2 26.44 q0.2 0.32 0.2 0.68 q0 0.56 -0.4 0.98 t-1 0.42 l-3.32 0 q-0.44 0 -0.78 -0.22 t-0.5 -0.62 l-2.92 -6.88 l-11.32 0 l-2.88 6.88 q-0.16 0.4 -0.5 0.62 t-0.78 0.22 l-3.32 0 q-0.36 0 -0.68 -0.18 t-0.5 -0.46 t-0.22 -0.62 t0.12 -0.66 l11.28 -26.6 q0.16 -0.4 0.5 -0.62 t0.78 -0.22 l3.76 0 q0.44 0 0.78 0.22 t0.5 0.62 z M160.20000000000002 18.12 l-3.32 7.96 l6.64 0 z M197.60000000000002 24.84 q1.68 1.08 2.58 2.64 t0.9 3.48 q0 4.4 -3.4 6.84 q-3.16 2.2 -8.52 2.2 q-6.08 0 -9.4 -2.64 q-3.04 -2.44 -3.48 -6.88 q-0.08 -0.64 0.36 -1.08 t1.04 -0.44 l3.12 0 q0.56 0 0.96 0.36 t0.44 0.92 q0.08 1.04 0.54 1.78 t1.42 1.3 q1.84 1.04 5.04 1.04 q2.76 0 4.28 -0.64 q1.16 -0.52 1.56 -1.4 q0.24 -0.48 0.24 -1.24 q0 -0.48 -0.18 -0.8 t-0.58 -0.6 q-1.12 -0.76 -2.96 -1.32 q-1.6 -0.48 -4.28 -1.12 q-2.44 -0.52 -4.6 -1.4 q-2.44 -1.04 -3.84 -2.48 q-1.76 -1.76 -1.76 -4.6 q0 -3.96 3 -6.4 q2.92 -2.36 8.44 -2.36 t8.68 2.64 q2.96 2.44 3.16 6.28 q0.08 0.56 -0.36 1.04 q-0.48 0.4 -1 0.4 l-3.12 0 q-0.52 0 -0.92 -0.34 t-0.44 -0.86 q-0.12 -1.04 -0.68 -1.72 q-0.8 -1 -2.56 -1.48 q-1.2 -0.36 -3.06 -0.36 t-2.96 0.38 t-1.62 0.82 t-0.64 0.88 q-0.2 0.68 -0.2 1.28 q0 0.32 0.36 0.68 q0.72 0.64 1.6 0.96 q1.12 0.48 2.76 0.88 t3.42 0.84 t3.38 0.96 q1.88 0.64 3.28 1.56 z M226.00000000000003 10 q0.56 0 0.96 0.42 t0.4 0.98 l0 2.88 q0 0.56 -0.4 0.98 t-0.96 0.42 l-7.88 0 l0 22.28 q0 0.56 -0.42 0.98 t-0.98 0.42 l-3 0 q-0.6 0 -1 -0.42 t-0.4 -0.98 l0 -22.28 l-7.88 0 q-0.56 0 -0.98 -0.42 t-0.42 -0.98 l0 -2.88 q0 -0.56 0.42 -0.98 t0.98 -0.42 l21.56 0 z"></path></g>
			</g>
		</svg>
	